<svg id="Camada_1" data-name="Camada 1" xmlns="http://www.w3.org/2000/svg" viewBox="0 0 447.47 447.44"><defs><style>.cls-1{fill:#3b5998;}</style></defs><path class="cls-1" d="M525.77,540.47v-173h58c1.58-11.33,2.94-22.53,4.4-33.73s2.9-22.45,4.39-34c-7.49-.19-14.86-.06-22.23-.09s-14.81,0-22.22,0h-22a2.59,2.59,0,0,1-.43-1.94c0-14.88,0-29.77,0-44.65A42.28,42.28,0,0,1,527.53,241c2.54-8.31,8.32-13.2,16.52-15.47a53.44,53.44,0,0,1,13.89-1.76c11.44-.08,22.88,0,34.32,0a7.13,7.13,0,0,0,2.45-.18v-60.1a20,20,0,0,0-5.64-.82c-7.07-.6-14.15-1.09-21.24-1.41-11-.51-22-1-33-.34-16.82,1-32.59,5.51-46.43,15.51s-22.89,23.69-27.94,40a101.21,101.21,0,0,0-4.07,20.85c-.53,5.83-.74,11.68-.73,17.54q0,21.12,0,42.23a7.38,7.38,0,0,1-.2,2.62H397.66v67.8H455.6V540.28a6.94,6.94,0,0,1-2.6.18H241.85A24.56,24.56,0,0,1,217.42,521a27.84,27.84,0,0,1-.6-6.11q0-181.68,0-363.36,0-16.71,0-33.43A24.74,24.74,0,0,1,242,93.07H639.2a24.94,24.94,0,0,1,25.09,25.08q-.13,198.62,0,397.23a25,25,0,0,1-20.86,24.83,21.23,21.23,0,0,1-3.28.26H525.77Z" transform="translate(-216.82 -93.06)"/></svg>