<svg id="Camada_1" data-name="Camada 1" xmlns="http://www.w3.org/2000/svg" viewBox="0 0 360.17 360.19"><defs><style>.cls-1{fill:#fffefe;}</style></defs><path class="cls-1" d="M495.82,477.14c-.64,0-1.27-.07-1.91,0-13.59.55-27.18.93-40.78,1-7.34,0-14.68-.06-22-.07-18.27,0-36.55.05-54.83-.12-6.3-.05-12.61-.15-18.9-.44-7.65-.35-15.3-.67-22.91-1.44a118.71,118.71,0,0,1-38.15-10.24,48.05,48.05,0,0,1-7.76-4c-3.89-2.75-7.94-5.3-11.49-8.52-.62-.57-1.15-1.39-2.2-1.24a13.14,13.14,0,0,0-2.1-2.55c-3.22-3.07-6.21-6.36-9.17-9.68a44.86,44.86,0,0,1-3.35-4.88,90.68,90.68,0,0,1-8.55-15.62c-1.78-4.17-3.13-8.5-4.71-12.75-.08-.47-.14-1-.25-1.41a140.81,140.81,0,0,1-3.29-16.07c-.9-6.65-1.35-13.32-1.66-20q-.69-14.81-.75-29.65c0-6.38-.2-12.75-.31-19.13,0-.71.08-1.42.08-2.13q0-17.28,0-34.56c0-1-.07-2.06-.1-3.09.1-6.22.25-12.44.29-18.66.07-11.56.23-23.13.77-34.68.16-3.59.47-7.16.66-10.75.33-6,1.43-11.86,2.29-17.77a20.85,20.85,0,0,1,1.53-6.28c1.37-4.32,2.41-8.79,4.19-12.95a100.13,100.13,0,0,1,7.44-14.68,92.52,92.52,0,0,1,51.74-39.62,133.17,133.17,0,0,1,27.91-5.37c8.19-.75,16.41-1,24.63-1.27,23.23-.68,46.47-.48,69.71-.5,1,0,2.08-.06,3.11-.09.64,0,1.28.07,1.91.07,12.07,0,24.13,0,36.19.34,10.62.27,21.24.55,31.83,1.48a121.37,121.37,0,0,1,31.95,6.91Q575.29,141.07,591,179c5.64,13.58,8,27.9,8.73,42.48.62,12.13,1,24.27,1.06,36.42.06,21.09,0,42.18.07,63.28,0,17.5-.17,35-1.09,52.47q-.45,8.61-1.7,17.15c-.55,3.72-1.45,7.36-2,11.06-.18.53-.38,1.05-.52,1.58a111.8,111.8,0,0,1-8.64,22.63,88.54,88.54,0,0,1-18.77,24.33c-3,2.84-6.34,5.34-9.56,7.95-1.75,1.09-3.48,2.21-5.26,3.26-14.52,8.6-30.38,12.84-47,14.62C502.79,476.59,499.27,476.5,495.82,477.14ZM273.43,309.79c0,.71-.1,1.43-.1,2.14-.05,19.62,0,39.25,1,58.85a88.73,88.73,0,0,0,1.36,13.79,69.07,69.07,0,0,0,4.89,19.81q9.54,23.79,33.22,33.61c10,4.13,20.57,5.78,31.27,6.39,10.05.57,20.1,1,30.17,1.05q33.18.09,66.38.12c5.91,0,11.82-.08,17.73-.12.55,0,1.11.07,1.67.07,11.89.05,23.77-.46,35.64-1.08a103.73,103.73,0,0,0,21.72-3.24,78,78,0,0,0,13.8-5.16,46,46,0,0,0,11.69-7.71c1-.87,2.05-1.71,3-2.61,8.39-7.6,13.18-17.35,16.43-27.94,3.14-10.21,3.91-20.78,4.17-31.4.2-4.63.53-9.25.59-13.88q.29-19.07.36-38.12c0-14.86-.06-29.73-.12-44.59-.06-13.27-.08-26.53-.72-39.79-.19-3.74-.38-7.5-.73-11.23-.38-4.27-.62-8.56-2-12.71-.68-2.12-.66-4.47-1.27-6.63-2.63-9.42-6.65-18.13-13.33-25.45-3.4-3.73-7-7.36-11.3-9.94a74.32,74.32,0,0,0-12.64-6.26,121.48,121.48,0,0,0-12.66-3.85,95.15,95.15,0,0,0-17.55-2.24q-14.25-.71-28.51-1c-9.83-.18-19.66-.17-29.49-.13-30.2.11-60.41-.54-90.6,1a117.08,117.08,0,0,0-24.15,3.35c-22.84,6-38,20.11-44.91,42.86-2.69,8.86-3.74,18-4.18,27.16-.62,12.85-1,25.71-1,38.58,0,5.51-.18,11,.08,16.53,0,3.65-.11,7.3-.1,10.94C273.34,297.26,273.4,303.52,273.43,309.79Z" transform="translate(-240.71 -117.93)"/><path class="cls-1" d="M328.47,304c.07-4.77-.14-9.53.33-14.3a107.6,107.6,0,0,1,2.65-15.25c.18-.69.3-1.4.45-2.09,1.33-3.33,2.3-6.79,3.71-10.09a111.32,111.32,0,0,1,8.88-16.39,64.55,64.55,0,0,1,9.07-11.54,134.73,134.73,0,0,1,11.5-10.07,65.08,65.08,0,0,1,9.22-6.39,108.06,108.06,0,0,1,23.09-9.31,92.3,92.3,0,0,1,30.14-2.77A89.64,89.64,0,0,1,466.3,217.6a97.55,97.55,0,0,1,20,15.29C501,247.41,509.47,265,512.46,285.26a88.71,88.71,0,0,1-.7,29.79c-.12.62-.14,1.26-.2,1.9-1.16,3.93-2.18,7.91-3.51,11.78A89.73,89.73,0,0,1,489,360.62c-.54.59-1,1.21-1.55,1.81A118.23,118.23,0,0,1,473.67,374a91.26,91.26,0,0,1-39,15.48,97.45,97.45,0,0,1-32.63-.83,87.39,87.39,0,0,1-13-3.56,78.78,78.78,0,0,1-17.8-8.77c-21-14.22-34.94-33.4-40.62-58.31a74.69,74.69,0,0,1-1.75-11.34C328.79,305.76,328.6,304.9,328.47,304Zm131.41,39.45a55.53,55.53,0,0,0,15-19.27,50.83,50.83,0,0,0,5.23-17.29,5.18,5.18,0,0,0,.3-.89,60.09,60.09,0,0,0-66.69-67.57,60.15,60.15,0,0,0-52.43,66.19,9.45,9.45,0,0,0,.67,3.71,17,17,0,0,0,.2,1.9,58.79,58.79,0,0,0,11.28,24.48,59.84,59.84,0,0,0,68.08,19.64A53.64,53.64,0,0,0,459.88,343.49Z" transform="translate(-240.71 -117.93)"/><path class="cls-1" d="M538.56,202.23a21.52,21.52,0,0,1-21.85,21.31c-12.48-.32-21.18-9.37-21.34-21.77-.16-12.86,11-21.58,21.89-21.44A21.61,21.61,0,0,1,538.56,202.23Z" transform="translate(-240.71 -117.93)"/></svg>