<svg id="Camada_1" data-name="Camada 1" xmlns="http://www.w3.org/2000/svg" viewBox="0 0 1200.85 1200.03"><defs><style>.cls-1{fill:#fff;}</style></defs><path class="cls-1" d="M-212,695.32V-321c2.66.1,1.87-2.3,2.39-3.55,4.13-9.87,11.24-16.34,21.49-19.33,7.73-2.25,15-1,22.24,2.49q74.54,35.63,149.17,71c5.07,2.41,10.15,4.79,15.07,7.11,2.35-1.53,3.58-3.56,5.07-5.32A238.68,238.68,0,0,1,94-334.91c22.43-9.42,45.89-14.71,70-17.18,1.83,0,3.66.09,5.48,0a190.07,190.07,0,0,1,21.48-.51c4,.18,7.94,1,12,.55,2.14.3,4.27.67,6.43.89,27,2.7,52.5,10.4,76.88,22.11a280,280,0,0,1,25.25,14.16l4.27-1.77c19.17-8.1,38.46-15.95,57.47-24.41,11-4.91,21.29-4.48,32.18.53Q534.29-281.2,663.27-222.11c3.6,1.66,6.47,1.88,10.22.21q134-59.49,268.08-118.8a36.84,36.84,0,0,1,28.66-.84c10.37,3.76,16.67,11.23,18.12,22.45a81.38,81.38,0,0,1,.49,10.47q0,495.89,0,991.75c0,1.84,0,3.67,0,5.5-.34,9.06-3.5,16.89-10.25,23.11-3.23,3-7.13,4.87-11.1,6.63Q825.33,781.1,683.22,843.91c-10.29,4.56-20,4.48-30.28-.22q-130.12-59.61-260.34-119a11,11,0,0,0-9.82-.11Q243.37,784.17,103.93,843.65c-11.26,4.83-21.58,4.66-32.59-.62q-86.47-41.52-173.17-82.57-44.88-21.37-89.77-42.74c-7.48-3.55-13.48-8.55-16.88-16.26-.8-1.81-1.21-3.8-1.92-5.66C-210.63,695.17-211,694.06-212,695.32Zm849.63-277V262.77h61.42V427.83H926.83V77.31H673.11c-2.33,0-4.67,0-7-.13a30.51,30.51,0,0,1-27.24-21.55c-1.34-4.38-1.38-8.86-1.38-13.37q0-101,0-202c0-2.14.39-4.33-.55-6.68-1.47-.72-3.09-1.54-4.74-2.3L435.13-259.07Q413.56-269,392-278.86c-1.79-.82-3.49-1.9-5.67-.94-7.6,3.35-15.25,6.6-22.84,9.88a4.54,4.54,0,0,0,.37,1.24c1.2,1.6,2.41,3.19,3.67,4.74a218.85,218.85,0,0,1,24.58,37C418.57-176.38,426.52-123,415.46-67c-5.62,28.45-15.8,55.35-29,81.11-20.78,40.45-47.68,76.58-78,110.26-25.61,28.41-53.64,54.27-83.12,78.58q-11.19,9.23-23,17.65c-8.19,5.86-17.19,7.91-27,5.16-5.54-1.56-10.21-4.84-14.79-8.19A703.54,703.54,0,0,1,85,153.7c-36.92-36-69.74-75.28-95.29-120.29C-31.59-4-46.61-43.63-51.47-86.73a239.22,239.22,0,0,1-.24-52.89,242,242,0,0,1,17-66.56c.48-1.18,1.37-2.3.87-3.69-8.53-5.26-112.33-54.13-115.81-54.54V194.41Zm-787.25-159.8v411L58,768.33v-243h61.56V769.18c2.94.05,4.9-1.36,7-2.25Q249.94,714.39,373.28,661.7c10.34-4.43,20-4.37,30.29.39,36.11,16.74,72.39,33.11,108.59,49.63q60.23,27.48,120.43,55c1.41.64,2.73,1.87,4.62,1.26V482.17ZM182.8,157.25a12.27,12.27,0,0,0,4.51-3c7.88-6.67,15.85-13.25,23.55-20.13,30.26-27,58.36-56.15,83-88.47C317.6,14.45,337.49-18.9,349.49-56.52c9.59-30.08,12.11-60.69,5.94-91.75C347.54-188,328.59-221.65,297.8-248c-43.36-37.18-93.62-50.54-149.51-39.33-46.75,9.39-83.5,35.11-110,74.66-27,40.4-34.95,85.09-26.7,132.77,4.18,24.16,12.78,46.85,23.75,68.67,14.07,28,32.06,53.38,52.11,77.33,22.85,27.29,48.3,52,75.42,75C169.5,146.62,176.3,152,182.8,157.25Zm744-141.64c1.05-10.29.58-278-.56-282.1L699.35-166.07V15.61ZM927,490.12H699.18V769.51L927,668.94Z" transform="translate(212 352.75)"/><path class="cls-1" d="M637.77,201.57V140.62h60.41c1.05,3.51,1.47,50.58.54,60.63C695.25,202.2,644.83,202.5,637.77,201.57Z" transform="translate(212 352.75)"/><path class="cls-1" d="M119.37,397.21V458H58.28V397.21Z" transform="translate(212 352.75)"/><path class="cls-1" d="M183.54-14.61a105,105,0,0,1-105-104.9A105.27,105.27,0,0,1,183.73-224.83c57.87,0,105.41,47.6,105,105.5C288.4-60,240-14.24,183.54-14.61Zm.27-148.57A43.58,43.58,0,0,0,140-119.84,43.87,43.87,0,0,0,183.44-76a43.65,43.65,0,0,0,43.7-43.46A43.37,43.37,0,0,0,183.81-163.18Z" transform="translate(212 352.75)"/></svg>