<svg id="Camada_2" data-name="Camada 2" xmlns="http://www.w3.org/2000/svg" viewBox="0 0 380.36 448.44"><defs><style>.cls-1{fill:#020202;}</style></defs><path class="cls-1" d="M433.84,529.52c-45,.23-90-.4-135-2.12-27.58-1-50.3-23.43-52.26-50.86a989.54,989.54,0,0,1-1.69-121.4c.57-11.14.67-22.4,2.44-33.37,4.24-26.24,26.39-44.44,53.68-45.39,74-2.55,148-2.76,222-1.22,17.49.37,35,0,52.42,2.2,24.52,3.05,44,25,45.8,49.53A979.84,979.84,0,0,1,623,448.78c-.61,11.8-.5,23.72-2.83,35.33-5,24.73-26.55,42.35-51.79,43.32Q501.11,530,433.84,529.52Zm33.24-48.13c3.47,1.72,6.33,3.45,9.41,4.6,14.65,5.52,28.33-1.27,32.12-15.94a38.55,38.55,0,0,0,1.29-9.37q.15-37.49,0-75a37.77,37.77,0,0,0-5-19.09c-5.52-9.43-15.61-13.34-26.18-10.4-4.18,1.16-7.59,3.72-11.64,6.19,0-15.07-.12-29.53.08-44,.05-4.07-1.15-5.78-5.38-5.58-5.49.26-11,.06-16.5.07-7,0-7,.06-7,6.87q0,70.25,0,140.48c0,7,.08,14,0,21-.06,3.59,1.31,5.14,5,5,6.33-.18,12.67-.15,19,0C465.46,486.35,467.37,485.32,467.08,481.39ZM551.24,427h39.08c2.6,0,5,.09,5-3.74-.2-12.66.33-25.36-.53-38-.79-11.61-5.51-21.85-16.54-27.36-24.32-12.16-54.6,1.5-56,31-1,21.28-.66,42.66,0,64,.56,19.67,12,33.11,29,36,19.47,3.34,35.55-5.3,41.39-22.22,3-8.69,2.67-17.7,2.62-26.69,0-3-2.06-3.4-4.43-3.4-6.66,0-13.33.1-20,0-3.7-.08-5,1.51-4.89,5.13.11,4.82-.18,9.65-.4,14.47-.21,4.43-2.55,6.62-7.07,6.5s-6.12-2.6-6.6-6.61C550.74,446.69,551.47,437.23,551.24,427ZM392.58,477.19c.31,9.05.31,9.05,9,9.05,5,0,10-.12,15,0,3.3.12,4.36-1.28,4.35-4.45q-.07-60.25,0-120.52c0-3.68-1.57-4.54-4.84-4.45-5.83.16-11.68.28-17.5,0-4.57-.24-6.05,1.28-6,6,.19,28.67,0,57.34.17,86,0,3.11-.68,5.49-3.16,7.33-2.77,2.06-5.46,5.54-9.1,4.07s-1.89-5.59-1.9-8.5q-.18-44.51,0-89c0-4.26-1.22-6.1-5.7-5.85-5.32.3-10.67.06-16,.07-6.65,0-6.76.11-6.76,6.65q0,48.49,0,97A79.85,79.85,0,0,0,351,472c1.58,10.77,8.67,16.29,19.48,15.61A26.89,26.89,0,0,0,382.26,484C385.66,482.05,388.83,479.69,392.58,477.19Zm-95-134.53v59.28c0,26.15.1,52.3-.09,78.45,0,4.67,1.53,6.18,6.08,5.93,5.81-.32,11.66-.08,17.49-.08,7.48,0,7.49,0,7.49-7.3q0-65.2,0-130.41c0-1.79-.42-3.65.67-5.86,6.91,0,14-.13,21.16.05,3.75.09,5.53-1.06,5.39-5.1-.21-6.66-.15-13.33,0-20,.07-3.4-1.27-4.79-4.7-4.78q-38,.11-76,0c-3.3,0-4.37,1.29-4.3,4.47.16,6.83.21,13.66,0,20.49-.12,3.69,1.13,5,4.87,4.92C282.79,342.51,289.91,342.66,297.59,342.66Z" transform="translate(-243.76 -81.13)"/><path class="cls-1" d="M378.81,81.13,404,81.2c-3,13.48-7.7,26.44-11.6,39.64-5.33,18-10.88,35.94-16.39,53.89a29.12,29.12,0,0,0-1.25,8.84c.06,21.47,0,43,0,64.75H349.16c-.94-1.48-.44-3.19-.45-4.79,0-17.84-.12-35.68,0-53.51a48.08,48.08,0,0,0-2.25-14.69Q332.16,128.39,318,81.39h25.77l17.07,67.18c2.9-4.17,3-8,3.92-11.6,4.5-18,8.81-36.06,13.21-54.09A9.53,9.53,0,0,1,378.81,81.13Z" transform="translate(-243.76 -81.13)"/><path class="cls-1" d="M470.18,186.7c0,11.16.3,22.33-.06,33.48-.65,20-13.15,31.77-33.3,31.87-18.94.1-32.44-12.22-33-31.38-.62-22,.09-44-.38-65.95-.52-24,18-34.5,37.06-33,18,1.41,29.37,13.89,29.71,32,.2,11,0,22,0,33Zm-23.23,0c0-11.33.06-22.65,0-34,0-5.94-2.92-8.92-8.7-9.39-7.14-.58-10.78,2.74-10.8,10.29-.08,21.82,0,43.64,0,65.46,0,1.32.18,2.65.32,4,.44,4,3,6.19,6.74,7,6.91,1.48,12.33-2.72,12.43-9.88C447.06,209,446.94,197.88,447,186.72Z" transform="translate(-243.76 -81.13)"/><path class="cls-1" d="M489.94,125.09h22.64c1.16,1.69.59,3.57.6,5.32,0,29.17,0,58.34.09,87.51,0,3.3-1.25,7.44,2.67,9.45,4.24,2.18,7.62-.62,11-2.82,4.31-2.84,6.21-6.43,6.15-12-.33-29-.15-58-.15-87.35H555.5V248.33H533.09V236.1c-2.14.45-2.79,1.93-3.82,2.88a51.58,51.58,0,0,1-10.82,8c-15.76,8.41-28.29,1.21-28.44-16.66-.22-26.51-.07-53-.07-79.51C489.93,142.31,489.94,133.82,489.94,125.09Z" transform="translate(-243.76 -81.13)"/><path class="cls-1" d="M467,421.43c0-11.32.16-22.64-.08-33.95-.1-4.84,2.77-6.5,6.56-7.13,4.07-.67,6.13,1.78,6.76,5.59a21.55,21.55,0,0,1,.44,3.46q0,33.45,0,66.89c0,3.65-.57,7.17-5.59,7.07-4.83-.1-8-3.21-8-8Q467,438.39,467,421.43Z" transform="translate(-243.76 -81.13)"/><path class="cls-1" d="M566.09,402.32H551.56a58.66,58.66,0,0,1,.55-17.21c.66-3.45,3.45-4.22,6.41-4.29,3.17-.07,5.83.73,6.73,4.45C566.61,390.83,565.64,396.4,566.09,402.32Z" transform="translate(-243.76 -81.13)"/></svg>